<svg xmlns="http://www.w3.org/2000/svg" width="16" height="10.671" viewBox="0 0 16 10.671">
  <path id="Icon_ionic-ios-arrow-round-forward" data-name="Icon ionic-ios-arrow-round-forward" d="M13.671,11.456a.726.726,0,0,1,.006,1.023L10.3,15.863h12.86a.722.722,0,0,1,0,1.445H10.3l3.379,3.385a.731.731,0,0,1-.006,1.023.72.72,0,0,1-1.017-.006L8.081,17.1h0a.811.811,0,0,1-.15-.228.69.69,0,0,1-.056-.278.724.724,0,0,1,.206-.506l4.579-4.613A.708.708,0,0,1,13.671,11.456Z" transform="translate(-7.875 -11.251)" fill="currentColor"/>
</svg>
