<svg xmlns="http://www.w3.org/2000/svg" width="24.995" height="24.996" viewBox="0 0 24.995 24.996">
  <g id="wordpress" transform="translate(-0.008)">
    <g id="Group_10239" data-name="Group 10239" transform="translate(0.008)">
      <path id="Path_12771" data-name="Path 12771" d="M.008,152.158a12.5,12.5,0,0,0,7.043,11.247L1.09,147.072A12.46,12.46,0,0,0,.008,152.158Z" transform="translate(-0.008 -139.66)" fill="#1c769b"/>
      <path id="Path_12772" data-name="Path 12772" d="M181.694,269.688l-3.75,10.9a12.5,12.5,0,0,0,7.681-.2,1.153,1.153,0,0,1-.089-.172Z" transform="translate(-168.977 -256.097)" fill="#1c769b"/>
      <path id="Path_12773" data-name="Path 12773" d="M59.687,11.868a6.584,6.584,0,0,0-1.03-3.447A5.855,5.855,0,0,1,57.428,5.49a2.164,2.164,0,0,1,2.1-2.219c.056,0,.108.008.161.01a12.493,12.493,0,0,0-18.88,2.352c.293.009.57.015.8.015,1.307,0,3.331-.159,3.331-.159a.516.516,0,0,1,.079,1.029s-.677.08-1.43.12l4.551,13.537,2.735-8.2L48.932,6.638c-.674-.04-1.312-.12-1.312-.12a.516.516,0,0,1,.08-1.029s2.064.159,3.292.159c1.307,0,3.331-.159,3.331-.159A.516.516,0,0,1,54.4,6.519s-.678.08-1.43.12l4.516,13.434,1.248-4.165A15.179,15.179,0,0,0,59.687,11.868Z" transform="translate(-38.752)" fill="#1c769b"/>
      <path id="Path_12774" data-name="Path 12774" d="M377.464,130.3a11.784,11.784,0,0,1-.951,4.477L372.7,145.814a12.5,12.5,0,0,0,4.683-16.8A9.464,9.464,0,0,1,377.464,130.3Z" transform="translate(-353.915 -122.514)" fill="#1c769b"/>
    </g>
    <path id="Path_12775" data-name="Path 12775" d="M57.428,5.489a2.164,2.164,0,0,1,2.1-2.219c.056,0,.108.008.161.01a12.494,12.494,0,0,0-18.88,2.352c.293.009.57.015.8.015,1.307,0,3.331-.159,3.331-.159a.516.516,0,0,1,.079,1.029s-.677.08-1.43.12L45.327,11.8a11.389,11.389,0,0,0,3.8.646,11.582,11.582,0,0,0,1.636-.116l.119-.358L48.933,6.639c-.674-.04-1.312-.12-1.312-.12A.516.516,0,0,1,47.7,5.49s2.064.159,3.292.159c1.307,0,3.331-.159,3.331-.159A.516.516,0,0,1,54.4,6.519s-.678.08-1.43.12l1.5,4.473a10.607,10.607,0,0,0,3.763-3.37A4.4,4.4,0,0,1,57.428,5.489Z" transform="translate(-38.744)" fill="#2795b7"/>
    <path id="Path_12776" data-name="Path 12776" d="M65.114,0a12.465,12.465,0,0,0-9.706,4.635,32.294,32.294,0,0,0,6.538.65,28.273,28.273,0,0,0,11.4-2.19A12.444,12.444,0,0,0,65.114,0Z" transform="translate(-52.608)" fill="#3fb5d1"/>
  </g>
</svg>
