<svg xmlns="http://www.w3.org/2000/svg" width="14" height="15.574" viewBox="0 0 14 15.574">
  <path id="estate" d="M16.222,6.661h0L11.555,2.57a2.333,2.333,0,0,0-3.111,0L3.778,6.661A2.333,2.333,0,0,0,3,8.419v6.8A2.333,2.333,0,0,0,5.333,17.55h9.333A2.333,2.333,0,0,0,17,15.217V8.411a2.333,2.333,0,0,0-.778-1.75Zm-4.667,9.333H8.444V12.106a.778.778,0,0,1,.778-.778h1.556a.778.778,0,0,1,.778.778Zm3.889-.778a.778.778,0,0,1-.778.778H13.111V12.106a2.333,2.333,0,0,0-2.333-2.333H9.222a2.333,2.333,0,0,0-2.333,2.333v3.889H5.333a.778.778,0,0,1-.778-.778V8.411a.778.778,0,0,1,.264-.583L9.487,3.745a.778.778,0,0,1,1.027,0L15.18,7.828a.778.778,0,0,1,.264.583Z" transform="translate(-3 -1.976)" fill="currentColor"/>
</svg>
