<svg id="Group_1641" data-name="Group 1641" xmlns="http://www.w3.org/2000/svg" width="27.997" height="23.612" viewBox="0 0 27.997 23.612">
  <path id="Path_1032" data-name="Path 1032" d="M24.456,40.343c-6.444,3.141-14.312,3.5-16.582,3.533H2.463A2.467,2.467,0,0,0,0,46.341C0,60.517-.013,59.695.028,59.878a1.155,1.155,0,0,0,.378.625h0a36.757,36.757,0,0,0,7.516.271,48.26,48.26,0,0,0,6.236-.5A37.673,37.673,0,0,0,25.695,56.9a12.075,12.075,0,0,0,2.3-1.113V42.56A2.463,2.463,0,0,0,24.456,40.343Zm1.239,13.95A34.426,34.426,0,0,1,13.834,58,69.7,69.7,0,0,1,2.3,58.478V46.341a.164.164,0,0,1,.165-.164H7.05A43.921,43.921,0,0,0,25.464,42.41a.162.162,0,0,1,.231.15Z" transform="translate(0.003 -40.092)" fill="currentColor"/>
  <path id="Path_1033" data-name="Path 1033" d="M185.662,192.205a4.07,4.07,0,1,0-4.07-4.07A4.074,4.074,0,0,0,185.662,192.205Zm0-5.84a1.77,1.77,0,1,1-1.77,1.77,1.772,1.772,0,0,1,1.77-1.77Z" transform="translate(-171.662 -176.193)" fill="currentColor"/>
  <path id="Path_1034" data-name="Path 1034" d="M374.972,133.546c.251,0,.194,0,2.116-.643a1.15,1.15,0,0,0-.727-2.181l-1.752.584a1.15,1.15,0,0,0,.363,2.241Z" transform="translate(-353.381 -125.709)" fill="currentColor" opacity="0.5"/>
  <path id="Path_1035" data-name="Path 1035" d="M65.265,314.522h1.752a1.15,1.15,0,0,0,0-2.3H65.265a1.15,1.15,0,0,0,0,2.3Z" transform="translate(-60.609 -297.343)" fill="currentColor" opacity="0.5"/>
  <path id="Path_1036" data-name="Path 1036" d="M35.067,327.06v3.082a2.465,2.465,0,0,1-1.3,2.17,26.438,26.438,0,0,1-12.329,2.668c-8.675,0-13.608-2.969-13.821-3.1a1.075,1.075,0,0,1-.141-.1A36.753,36.753,0,0,0,15,332.05c5.484,1.112,12.766.894,17.681-1.761a.169.169,0,0,0,.091-.147v-1.969A12.077,12.077,0,0,0,35.067,327.06Z" transform="translate(-7.071 -311.369)" fill="currentColor"/>
</svg>
