<svg xmlns="http://www.w3.org/2000/svg" width="24.597" height="24.597" viewBox="0 0 24.597 24.597">
  <g id="Group_12894" data-name="Group 12894" transform="translate(-3218 -3932)">
    <g id="search_1_" data-name="search (1)" transform="translate(3218 3932)">
      <path id="Path_5619" data-name="Path 5619" d="M5.451,146.49l-.856,3.2-3.129.066a12.32,12.32,0,0,1-.091-11.484h0l2.786.511,1.22,2.769a7.34,7.34,0,0,0,.069,4.942Z" transform="translate(0 -131.625)" fill="#fbbb00"/>
      <path id="Path_5620" data-name="Path 5620" d="M273.441,208.176a12.294,12.294,0,0,1-4.384,11.888h0l-3.509-.179-.5-3.1a7.33,7.33,0,0,0,3.154-3.743h-6.576v-4.865h11.813Z" transform="translate(-249.059 -198.175)" fill="#518ef8"/>
      <path id="Path_5621" data-name="Path 5621" d="M49.04,316.433h0a12.3,12.3,0,0,1-18.532-3.763l3.986-3.262a7.314,7.314,0,0,0,10.54,3.745Z" transform="translate(-29.043 -294.545)" fill="#28b446"/>
      <path id="Path_5622" data-name="Path 5622" d="M47.4,2.831,43.413,6.093A7.313,7.313,0,0,0,32.631,9.923l-4.006-3.28h0A12.3,12.3,0,0,1,47.4,2.831Z" transform="translate(-27.249)" fill="#f14336"/>
    </g>
  </g>
</svg>
