<svg xmlns="http://www.w3.org/2000/svg" width="15" height="13.345" viewBox="0 0 15 13.345">
  <path id="_116-heart" data-name="116-heart" d="M13.811,29.307a4.029,4.029,0,0,0-3-1.307,3.759,3.759,0,0,0-2.355.814,4.677,4.677,0,0,0-.946.987l-.006.006a4.825,4.825,0,0,0-.952-1A3.8,3.8,0,0,0,4.189,28a4.029,4.029,0,0,0-3,1.307A4.685,4.685,0,0,0,0,32.509a5.572,5.572,0,0,0,1.488,3.653,31.537,31.537,0,0,0,3.724,3.5l0,0c.516.439,1.1.938,1.705,1.468a.879.879,0,0,0,.58.217h.006a.879.879,0,0,0,.574-.217c.606-.53,1.192-1.031,1.708-1.471a31.782,31.782,0,0,0,3.724-3.5A5.587,5.587,0,0,0,15,32.509,4.685,4.685,0,0,0,13.811,29.307Z" transform="translate(0 -28)" fill="#ff4d4f"/>
</svg>
